<mxfile host="app.diagrams.net" modified="2023-06-28T13:32:57.254Z" agent="Mozilla/5.0 (Windows NT 10.0; Win64; x64) AppleWebKit/537.36 (KHTML, like Gecko) Chrome/114.0.0.0 Safari/537.36 Edg/114.0.1823.58" etag="9zdVsowAsrwCKP84Ke7F" version="21.5.1" type="device">
  <diagram name="Page-1" id="TpxjXsmHRlu721S8jYl5">
    <mxGraphModel dx="2022" dy="657" grid="1" gridSize="10" guides="1" tooltips="1" connect="1" arrows="1" fold="1" page="1" pageScale="1" pageWidth="827" pageHeight="1169" math="0" shadow="0">
      <root>
        <mxCell id="0" />
        <mxCell id="1" parent="0" />
        <mxCell id="qjdT9Vj7Uxa5JiSwjhFM-69" style="edgeStyle=orthogonalEdgeStyle;rounded=0;orthogonalLoop=1;jettySize=auto;html=1;exitX=0.5;exitY=1;exitDx=0;exitDy=0;entryX=0.5;entryY=0;entryDx=0;entryDy=0;strokeColor=#000099;" parent="1" source="qjdT9Vj7Uxa5JiSwjhFM-1" target="qjdT9Vj7Uxa5JiSwjhFM-68" edge="1">
          <mxGeometry relative="1" as="geometry" />
        </mxCell>
        <mxCell id="eNA9eat7r-kCLk699n3w-10" style="edgeStyle=orthogonalEdgeStyle;rounded=0;orthogonalLoop=1;jettySize=auto;html=1;exitX=0;exitY=0.25;exitDx=0;exitDy=0;entryX=1;entryY=0.5;entryDx=0;entryDy=0;strokeColor=#D6B656;" parent="1" source="qjdT9Vj7Uxa5JiSwjhFM-1" target="eNA9eat7r-kCLk699n3w-2" edge="1">
          <mxGeometry relative="1" as="geometry">
            <Array as="points">
              <mxPoint x="180" y="326" />
              <mxPoint x="180" y="245" />
            </Array>
          </mxGeometry>
        </mxCell>
        <mxCell id="jaxn0THEXveVpyBMT0pF-9" style="edgeStyle=orthogonalEdgeStyle;rounded=0;orthogonalLoop=1;jettySize=auto;html=1;exitX=0.25;exitY=0;exitDx=0;exitDy=0;entryX=0.5;entryY=0;entryDx=0;entryDy=0;dashed=1;dashPattern=1 4;" edge="1" parent="1" source="qjdT9Vj7Uxa5JiSwjhFM-1" target="eNA9eat7r-kCLk699n3w-4">
          <mxGeometry relative="1" as="geometry">
            <Array as="points">
              <mxPoint x="222" y="190" />
              <mxPoint x="-285" y="190" />
            </Array>
          </mxGeometry>
        </mxCell>
        <mxCell id="qjdT9Vj7Uxa5JiSwjhFM-1" value="&lt;b&gt;main&lt;/b&gt;" style="rounded=1;whiteSpace=wrap;html=1;fillColor=#fff2cc;strokeColor=#d6b656;strokeWidth=2;" parent="1" vertex="1">
          <mxGeometry x="202" y="310" width="80" height="65" as="geometry" />
        </mxCell>
        <mxCell id="qjdT9Vj7Uxa5JiSwjhFM-53" value="&lt;b&gt;&lt;font color=&quot;#990000&quot; style=&quot;font-size: 10px;&quot;&gt;NO&lt;/font&gt;&lt;/b&gt;" style="text;html=1;strokeColor=none;fillColor=none;align=center;verticalAlign=middle;whiteSpace=wrap;rounded=0;" parent="1" vertex="1">
          <mxGeometry x="278" y="406.88" width="20" height="16.12" as="geometry" />
        </mxCell>
        <mxCell id="qjdT9Vj7Uxa5JiSwjhFM-54" value="&lt;b&gt;&lt;font color=&quot;#990000&quot; style=&quot;font-size: 10px;&quot;&gt;NO&lt;/font&gt;&lt;/b&gt;" style="text;html=1;strokeColor=none;fillColor=none;align=center;verticalAlign=middle;whiteSpace=wrap;rounded=0;" parent="1" vertex="1">
          <mxGeometry x="-140" y="589.88" width="20" height="16.12" as="geometry" />
        </mxCell>
        <mxCell id="qjdT9Vj7Uxa5JiSwjhFM-70" style="edgeStyle=orthogonalEdgeStyle;rounded=0;orthogonalLoop=1;jettySize=auto;html=1;exitX=1;exitY=0.5;exitDx=0;exitDy=0;entryX=1;entryY=0.5;entryDx=0;entryDy=0;strokeColor=#990000;" parent="1" source="qjdT9Vj7Uxa5JiSwjhFM-68" target="qjdT9Vj7Uxa5JiSwjhFM-1" edge="1">
          <mxGeometry relative="1" as="geometry" />
        </mxCell>
        <mxCell id="qjdT9Vj7Uxa5JiSwjhFM-79" style="edgeStyle=orthogonalEdgeStyle;rounded=0;orthogonalLoop=1;jettySize=auto;html=1;exitX=0.5;exitY=1;exitDx=0;exitDy=0;entryX=0.5;entryY=0;entryDx=0;entryDy=0;strokeColor=#006600;" parent="1" source="qjdT9Vj7Uxa5JiSwjhFM-68" target="qjdT9Vj7Uxa5JiSwjhFM-72" edge="1">
          <mxGeometry relative="1" as="geometry">
            <Array as="points">
              <mxPoint x="242" y="460" />
              <mxPoint x="242" y="460" />
            </Array>
          </mxGeometry>
        </mxCell>
        <mxCell id="qjdT9Vj7Uxa5JiSwjhFM-68" value="&lt;p style=&quot;line-height: 100%; font-size: 9px;&quot;&gt;&lt;span style=&quot;&quot;&gt;&lt;b&gt;code&lt;br&gt;coverage&lt;br&gt;done&lt;/b&gt;&lt;br&gt;&lt;/span&gt;&lt;/p&gt;" style="rhombus;whiteSpace=wrap;html=1;fillColor=#dae8fc;strokeColor=#6c8ebf;strokeWidth=1;" parent="1" vertex="1">
          <mxGeometry x="207" y="402.06" width="70" height="41.25" as="geometry" />
        </mxCell>
        <mxCell id="qjdT9Vj7Uxa5JiSwjhFM-82" style="edgeStyle=orthogonalEdgeStyle;rounded=0;orthogonalLoop=1;jettySize=auto;html=1;exitX=0.5;exitY=1;exitDx=0;exitDy=0;strokeColor=#CC00CC;" parent="1" source="qjdT9Vj7Uxa5JiSwjhFM-72" target="qjdT9Vj7Uxa5JiSwjhFM-81" edge="1">
          <mxGeometry relative="1" as="geometry" />
        </mxCell>
        <mxCell id="qjdT9Vj7Uxa5JiSwjhFM-72" value="&lt;b&gt;PR&lt;/b&gt;" style="shape=parallelogram;perimeter=parallelogramPerimeter;whiteSpace=wrap;html=1;fixedSize=1;size=10;fillColor=#d5e8d4;strokeColor=#82b366;strokeWidth=2;" parent="1" vertex="1">
          <mxGeometry x="217" y="467.5" width="50" height="25" as="geometry" />
        </mxCell>
        <mxCell id="qjdT9Vj7Uxa5JiSwjhFM-80" value="&lt;b&gt;&lt;font color=&quot;#006600&quot; style=&quot;font-size: 10px;&quot;&gt;YES&lt;/font&gt;&lt;/b&gt;" style="text;html=1;strokeColor=none;fillColor=none;align=center;verticalAlign=middle;whiteSpace=wrap;rounded=0;" parent="1" vertex="1">
          <mxGeometry x="240" y="442" width="30" height="16.12" as="geometry" />
        </mxCell>
        <mxCell id="qjdT9Vj7Uxa5JiSwjhFM-86" style="edgeStyle=orthogonalEdgeStyle;rounded=0;orthogonalLoop=1;jettySize=auto;html=1;exitX=0.5;exitY=1;exitDx=0;exitDy=0;entryX=0.5;entryY=0;entryDx=0;entryDy=0;" parent="1" source="qjdT9Vj7Uxa5JiSwjhFM-81" target="qjdT9Vj7Uxa5JiSwjhFM-85" edge="1">
          <mxGeometry relative="1" as="geometry" />
        </mxCell>
        <mxCell id="qjdT9Vj7Uxa5JiSwjhFM-99" style="edgeStyle=orthogonalEdgeStyle;rounded=0;orthogonalLoop=1;jettySize=auto;html=1;exitX=0;exitY=0.5;exitDx=0;exitDy=0;entryX=1;entryY=0.5;entryDx=0;entryDy=0;strokeColor=#D6B656;" parent="1" source="qjdT9Vj7Uxa5JiSwjhFM-81" target="qjdT9Vj7Uxa5JiSwjhFM-90" edge="1">
          <mxGeometry relative="1" as="geometry" />
        </mxCell>
        <mxCell id="qjdT9Vj7Uxa5JiSwjhFM-81" value="&lt;b&gt;QA&lt;/b&gt;" style="rounded=1;whiteSpace=wrap;html=1;fillColor=#fff2cc;strokeColor=#d6b656;strokeWidth=2;" parent="1" vertex="1">
          <mxGeometry x="202" y="534" width="80" height="30" as="geometry" />
        </mxCell>
        <mxCell id="qjdT9Vj7Uxa5JiSwjhFM-88" style="edgeStyle=orthogonalEdgeStyle;rounded=0;orthogonalLoop=1;jettySize=auto;html=1;exitX=0.5;exitY=1;exitDx=0;exitDy=0;" parent="1" source="qjdT9Vj7Uxa5JiSwjhFM-85" target="qjdT9Vj7Uxa5JiSwjhFM-87" edge="1">
          <mxGeometry relative="1" as="geometry" />
        </mxCell>
        <mxCell id="qjdT9Vj7Uxa5JiSwjhFM-85" value="" style="shape=image;html=1;verticalAlign=top;verticalLabelPosition=bottom;labelBackgroundColor=#ffffff;imageAspect=0;aspect=fixed;image=https://cdn4.iconfinder.com/data/icons/essential-3/32/356-Document_Code-128.png;imageBackground=none;imageBorder=none;" parent="1" vertex="1">
          <mxGeometry x="222" y="584" width="40" height="40" as="geometry" />
        </mxCell>
        <mxCell id="qjdT9Vj7Uxa5JiSwjhFM-87" value="DEPLOY" style="html=1;whiteSpace=wrap;strokeColor=none;fillColor=#0079D6;labelPosition=center;verticalLabelPosition=middle;verticalAlign=top;align=center;fontSize=12;outlineConnect=0;spacingTop=-6;fontColor=#FFFFFF;sketch=0;shape=mxgraph.sitemap.cloud;" parent="1" vertex="1">
          <mxGeometry x="204" y="641" width="76" height="33" as="geometry" />
        </mxCell>
        <mxCell id="qjdT9Vj7Uxa5JiSwjhFM-89" style="edgeStyle=orthogonalEdgeStyle;rounded=0;orthogonalLoop=1;jettySize=auto;html=1;exitX=0.5;exitY=1;exitDx=0;exitDy=0;entryX=0.5;entryY=0;entryDx=0;entryDy=0;" parent="1" source="qjdT9Vj7Uxa5JiSwjhFM-90" target="qjdT9Vj7Uxa5JiSwjhFM-92" edge="1">
          <mxGeometry relative="1" as="geometry" />
        </mxCell>
        <mxCell id="qjdT9Vj7Uxa5JiSwjhFM-100" style="edgeStyle=orthogonalEdgeStyle;rounded=0;orthogonalLoop=1;jettySize=auto;html=1;exitX=0;exitY=0.5;exitDx=0;exitDy=0;entryX=1;entryY=0.5;entryDx=0;entryDy=0;strokeColor=#D6B656;" parent="1" source="qjdT9Vj7Uxa5JiSwjhFM-90" target="qjdT9Vj7Uxa5JiSwjhFM-95" edge="1">
          <mxGeometry relative="1" as="geometry" />
        </mxCell>
        <mxCell id="qjdT9Vj7Uxa5JiSwjhFM-90" value="&lt;b&gt;UAT&lt;/b&gt;" style="rounded=1;whiteSpace=wrap;html=1;fillColor=#fff2cc;strokeColor=#d6b656;strokeWidth=2;" parent="1" vertex="1">
          <mxGeometry x="90" y="534" width="80" height="30" as="geometry" />
        </mxCell>
        <mxCell id="qjdT9Vj7Uxa5JiSwjhFM-91" style="edgeStyle=orthogonalEdgeStyle;rounded=0;orthogonalLoop=1;jettySize=auto;html=1;exitX=0.5;exitY=1;exitDx=0;exitDy=0;" parent="1" source="qjdT9Vj7Uxa5JiSwjhFM-92" target="qjdT9Vj7Uxa5JiSwjhFM-93" edge="1">
          <mxGeometry relative="1" as="geometry" />
        </mxCell>
        <mxCell id="qjdT9Vj7Uxa5JiSwjhFM-92" value="" style="shape=image;html=1;verticalAlign=top;verticalLabelPosition=bottom;labelBackgroundColor=#ffffff;imageAspect=0;aspect=fixed;image=https://cdn4.iconfinder.com/data/icons/essential-3/32/356-Document_Code-128.png;imageBackground=none;imageBorder=none;" parent="1" vertex="1">
          <mxGeometry x="110" y="584" width="40" height="40" as="geometry" />
        </mxCell>
        <mxCell id="qjdT9Vj7Uxa5JiSwjhFM-93" value="DEPLOY" style="html=1;whiteSpace=wrap;strokeColor=none;fillColor=#0079D6;labelPosition=center;verticalLabelPosition=middle;verticalAlign=top;align=center;fontSize=12;outlineConnect=0;spacingTop=-6;fontColor=#FFFFFF;sketch=0;shape=mxgraph.sitemap.cloud;" parent="1" vertex="1">
          <mxGeometry x="92" y="641" width="76" height="33" as="geometry" />
        </mxCell>
        <mxCell id="qjdT9Vj7Uxa5JiSwjhFM-94" style="edgeStyle=orthogonalEdgeStyle;rounded=0;orthogonalLoop=1;jettySize=auto;html=1;exitX=0.5;exitY=1;exitDx=0;exitDy=0;entryX=0.5;entryY=0;entryDx=0;entryDy=0;" parent="1" source="qjdT9Vj7Uxa5JiSwjhFM-95" target="qjdT9Vj7Uxa5JiSwjhFM-97" edge="1">
          <mxGeometry relative="1" as="geometry" />
        </mxCell>
        <mxCell id="qjdT9Vj7Uxa5JiSwjhFM-106" style="edgeStyle=orthogonalEdgeStyle;rounded=0;orthogonalLoop=1;jettySize=auto;html=1;exitX=0;exitY=0.5;exitDx=0;exitDy=0;entryX=1;entryY=0.5;entryDx=0;entryDy=0;strokeColor=#CC0000;" parent="1" source="qjdT9Vj7Uxa5JiSwjhFM-95" target="qjdT9Vj7Uxa5JiSwjhFM-105" edge="1">
          <mxGeometry relative="1" as="geometry" />
        </mxCell>
        <mxCell id="qjdT9Vj7Uxa5JiSwjhFM-95" value="&lt;b&gt;Release&lt;/b&gt;" style="rounded=1;whiteSpace=wrap;html=1;fillColor=#60a917;strokeColor=#2D7600;strokeWidth=2;fontColor=#ffffff;" parent="1" vertex="1">
          <mxGeometry x="-16" y="534" width="80" height="30" as="geometry" />
        </mxCell>
        <mxCell id="qjdT9Vj7Uxa5JiSwjhFM-96" style="edgeStyle=orthogonalEdgeStyle;rounded=0;orthogonalLoop=1;jettySize=auto;html=1;exitX=0.5;exitY=1;exitDx=0;exitDy=0;" parent="1" source="qjdT9Vj7Uxa5JiSwjhFM-97" target="qjdT9Vj7Uxa5JiSwjhFM-98" edge="1">
          <mxGeometry relative="1" as="geometry" />
        </mxCell>
        <mxCell id="qjdT9Vj7Uxa5JiSwjhFM-97" value="" style="shape=image;html=1;verticalAlign=top;verticalLabelPosition=bottom;labelBackgroundColor=#ffffff;imageAspect=0;aspect=fixed;image=https://cdn4.iconfinder.com/data/icons/essential-3/32/356-Document_Code-128.png;imageBackground=none;imageBorder=none;" parent="1" vertex="1">
          <mxGeometry x="4" y="584" width="40" height="40" as="geometry" />
        </mxCell>
        <mxCell id="qjdT9Vj7Uxa5JiSwjhFM-98" value="DEPLOY" style="html=1;whiteSpace=wrap;strokeColor=none;fillColor=#0079D6;labelPosition=center;verticalLabelPosition=middle;verticalAlign=top;align=center;fontSize=12;outlineConnect=0;spacingTop=-6;fontColor=#FFFFFF;sketch=0;shape=mxgraph.sitemap.cloud;" parent="1" vertex="1">
          <mxGeometry x="-14" y="641" width="76" height="33" as="geometry" />
        </mxCell>
        <mxCell id="qjdT9Vj7Uxa5JiSwjhFM-101" value="&lt;b&gt;&lt;font color=&quot;#006600&quot; style=&quot;font-size: 10px;&quot;&gt;CI / CD&lt;/font&gt;&lt;/b&gt;" style="text;html=1;strokeColor=none;fillColor=none;align=center;verticalAlign=middle;whiteSpace=wrap;rounded=0;" parent="1" vertex="1">
          <mxGeometry x="40" y="595.94" width="40" height="16.12" as="geometry" />
        </mxCell>
        <mxCell id="qjdT9Vj7Uxa5JiSwjhFM-103" value="&lt;b&gt;&lt;font color=&quot;#006600&quot; style=&quot;font-size: 10px;&quot;&gt;CI / CD&lt;/font&gt;&lt;/b&gt;" style="text;html=1;strokeColor=none;fillColor=none;align=center;verticalAlign=middle;whiteSpace=wrap;rounded=0;" parent="1" vertex="1">
          <mxGeometry x="145" y="595.94" width="40" height="16.12" as="geometry" />
        </mxCell>
        <mxCell id="qjdT9Vj7Uxa5JiSwjhFM-104" value="&lt;b&gt;&lt;font color=&quot;#006600&quot; style=&quot;font-size: 10px;&quot;&gt;CI / CD&lt;/font&gt;&lt;/b&gt;" style="text;html=1;strokeColor=none;fillColor=none;align=center;verticalAlign=middle;whiteSpace=wrap;rounded=0;" parent="1" vertex="1">
          <mxGeometry x="258" y="595.94" width="40" height="16.12" as="geometry" />
        </mxCell>
        <mxCell id="qjdT9Vj7Uxa5JiSwjhFM-108" style="edgeStyle=orthogonalEdgeStyle;rounded=0;orthogonalLoop=1;jettySize=auto;html=1;exitX=0.5;exitY=1;exitDx=0;exitDy=0;entryX=0.5;entryY=0;entryDx=0;entryDy=0;strokeColor=#000099;" parent="1" source="qjdT9Vj7Uxa5JiSwjhFM-105" target="qjdT9Vj7Uxa5JiSwjhFM-107" edge="1">
          <mxGeometry relative="1" as="geometry" />
        </mxCell>
        <mxCell id="qjdT9Vj7Uxa5JiSwjhFM-105" value="&lt;b&gt;HOT FIX&lt;/b&gt;" style="rounded=1;whiteSpace=wrap;html=1;fillColor=#ffcccc;strokeColor=#CC0000;strokeWidth=2;fillStyle=solid;" parent="1" vertex="1">
          <mxGeometry x="-120" y="534" width="80" height="30" as="geometry" />
        </mxCell>
        <mxCell id="qjdT9Vj7Uxa5JiSwjhFM-112" style="edgeStyle=orthogonalEdgeStyle;rounded=0;orthogonalLoop=1;jettySize=auto;html=1;exitX=0.5;exitY=1;exitDx=0;exitDy=0;entryX=0.5;entryY=0;entryDx=0;entryDy=0;strokeColor=#006600;" parent="1" source="qjdT9Vj7Uxa5JiSwjhFM-107" target="qjdT9Vj7Uxa5JiSwjhFM-109" edge="1">
          <mxGeometry relative="1" as="geometry" />
        </mxCell>
        <mxCell id="qjdT9Vj7Uxa5JiSwjhFM-115" style="edgeStyle=orthogonalEdgeStyle;rounded=0;orthogonalLoop=1;jettySize=auto;html=1;exitX=0;exitY=0.5;exitDx=0;exitDy=0;entryX=0;entryY=0.5;entryDx=0;entryDy=0;strokeColor=#990000;" parent="1" source="qjdT9Vj7Uxa5JiSwjhFM-107" target="qjdT9Vj7Uxa5JiSwjhFM-105" edge="1">
          <mxGeometry relative="1" as="geometry" />
        </mxCell>
        <mxCell id="qjdT9Vj7Uxa5JiSwjhFM-107" value="&lt;p style=&quot;line-height: 100%; font-size: 9px;&quot;&gt;&lt;b style=&quot;&quot;&gt;code&lt;br&gt;coverage&lt;br&gt;done&lt;br&gt;&lt;/b&gt;&lt;/p&gt;" style="rhombus;whiteSpace=wrap;html=1;fillColor=#dae8fc;strokeColor=#6c8ebf;strokeWidth=1;" parent="1" vertex="1">
          <mxGeometry x="-115" y="584" width="70" height="41.25" as="geometry" />
        </mxCell>
        <mxCell id="eNA9eat7r-kCLk699n3w-9" style="edgeStyle=orthogonalEdgeStyle;rounded=0;orthogonalLoop=1;jettySize=auto;html=1;exitX=0.5;exitY=1;exitDx=0;exitDy=0;entryX=0.5;entryY=0;entryDx=0;entryDy=0;strokeColor=#CC00CC;" parent="1" source="qjdT9Vj7Uxa5JiSwjhFM-109" target="qjdT9Vj7Uxa5JiSwjhFM-1" edge="1">
          <mxGeometry relative="1" as="geometry">
            <Array as="points">
              <mxPoint x="-80" y="680" />
              <mxPoint x="310" y="680" />
              <mxPoint x="310" y="290" />
              <mxPoint x="242" y="290" />
            </Array>
          </mxGeometry>
        </mxCell>
        <mxCell id="qjdT9Vj7Uxa5JiSwjhFM-109" value="&lt;b&gt;PR&lt;/b&gt;" style="shape=parallelogram;perimeter=parallelogramPerimeter;whiteSpace=wrap;html=1;fixedSize=1;size=10;fillColor=#d5e8d4;strokeColor=#82b366;strokeWidth=2;" parent="1" vertex="1">
          <mxGeometry x="-105" y="649" width="50" height="25" as="geometry" />
        </mxCell>
        <mxCell id="qjdT9Vj7Uxa5JiSwjhFM-113" value="&lt;b&gt;&lt;font color=&quot;#006600&quot; style=&quot;font-size: 10px;&quot;&gt;YES&lt;/font&gt;&lt;/b&gt;" style="text;html=1;strokeColor=none;fillColor=none;align=center;verticalAlign=middle;whiteSpace=wrap;rounded=0;" parent="1" vertex="1">
          <mxGeometry x="-82" y="624.88" width="30" height="16.12" as="geometry" />
        </mxCell>
        <mxCell id="eNA9eat7r-kCLk699n3w-12" style="edgeStyle=orthogonalEdgeStyle;rounded=0;orthogonalLoop=1;jettySize=auto;html=1;exitX=0;exitY=0.5;exitDx=0;exitDy=0;entryX=1;entryY=0.5;entryDx=0;entryDy=0;strokeColor=#000099;" parent="1" source="eNA9eat7r-kCLk699n3w-2" target="eNA9eat7r-kCLk699n3w-11" edge="1">
          <mxGeometry relative="1" as="geometry" />
        </mxCell>
        <mxCell id="eNA9eat7r-kCLk699n3w-21" style="edgeStyle=orthogonalEdgeStyle;rounded=0;orthogonalLoop=1;jettySize=auto;html=1;exitX=0.5;exitY=1;exitDx=0;exitDy=0;entryX=0.5;entryY=0;entryDx=0;entryDy=0;strokeColor=#000099;" parent="1" source="eNA9eat7r-kCLk699n3w-2" target="eNA9eat7r-kCLk699n3w-20" edge="1">
          <mxGeometry relative="1" as="geometry" />
        </mxCell>
        <mxCell id="eNA9eat7r-kCLk699n3w-2" value="&lt;b&gt;sprint-1 feature-1&lt;/b&gt;" style="rounded=1;whiteSpace=wrap;html=1;fillColor=#e1d5e7;strokeColor=#9673a6;strokeWidth=2;" parent="1" vertex="1">
          <mxGeometry x="-55" y="230" width="130" height="30" as="geometry" />
        </mxCell>
        <mxCell id="eNA9eat7r-kCLk699n3w-4" value="&lt;b&gt;sprint-1 dev sanity&lt;br&gt;(internal testing)&lt;br&gt;&lt;/b&gt;" style="rounded=1;whiteSpace=wrap;html=1;fillColor=#fff2cc;strokeColor=#d6b656;strokeWidth=2;" parent="1" vertex="1">
          <mxGeometry x="-350" y="265.63" width="130" height="60" as="geometry" />
        </mxCell>
        <mxCell id="eNA9eat7r-kCLk699n3w-13" style="edgeStyle=orthogonalEdgeStyle;rounded=0;orthogonalLoop=1;jettySize=auto;html=1;exitX=0.5;exitY=0;exitDx=0;exitDy=0;entryX=0.5;entryY=0;entryDx=0;entryDy=0;strokeColor=#990000;" parent="1" source="eNA9eat7r-kCLk699n3w-11" target="eNA9eat7r-kCLk699n3w-2" edge="1">
          <mxGeometry relative="1" as="geometry">
            <Array as="points">
              <mxPoint x="-120" y="210" />
              <mxPoint x="10" y="210" />
            </Array>
          </mxGeometry>
        </mxCell>
        <mxCell id="eNA9eat7r-kCLk699n3w-32" style="edgeStyle=orthogonalEdgeStyle;rounded=0;orthogonalLoop=1;jettySize=auto;html=1;exitX=0;exitY=0.5;exitDx=0;exitDy=0;entryX=1;entryY=0.5;entryDx=0;entryDy=0;strokeColor=#006600;" parent="1" source="eNA9eat7r-kCLk699n3w-11" target="eNA9eat7r-kCLk699n3w-4" edge="1">
          <mxGeometry relative="1" as="geometry">
            <Array as="points">
              <mxPoint x="-190" y="245" />
              <mxPoint x="-190" y="296" />
            </Array>
          </mxGeometry>
        </mxCell>
        <mxCell id="eNA9eat7r-kCLk699n3w-11" value="&lt;p style=&quot;line-height: 100%; font-size: 9px;&quot;&gt;&lt;span style=&quot;&quot;&gt;&lt;b&gt;code&lt;br&gt;coverage&lt;br&gt;done&lt;/b&gt;&lt;br&gt;&lt;/span&gt;&lt;/p&gt;" style="rhombus;whiteSpace=wrap;html=1;fillColor=#dae8fc;strokeColor=#6c8ebf;strokeWidth=1;" parent="1" vertex="1">
          <mxGeometry x="-155.5" y="224.38" width="70" height="41.25" as="geometry" />
        </mxCell>
        <mxCell id="eNA9eat7r-kCLk699n3w-14" value="&lt;b&gt;&lt;font color=&quot;#990000&quot; style=&quot;font-size: 10px;&quot;&gt;NO&lt;/font&gt;&lt;/b&gt;" style="text;html=1;strokeColor=none;fillColor=none;align=center;verticalAlign=middle;whiteSpace=wrap;rounded=0;" parent="1" vertex="1">
          <mxGeometry x="-121" y="209.88" width="20" height="16.12" as="geometry" />
        </mxCell>
        <mxCell id="eNA9eat7r-kCLk699n3w-37" style="edgeStyle=orthogonalEdgeStyle;rounded=0;orthogonalLoop=1;jettySize=auto;html=1;exitX=0;exitY=0.5;exitDx=0;exitDy=0;startArrow=classic;startFill=1;endArrow=none;endFill=0;dashed=1;strokeColor=#CC6600;" parent="1" source="eNA9eat7r-kCLk699n3w-20" edge="1">
          <mxGeometry relative="1" as="geometry">
            <mxPoint x="-163" y="394" as="targetPoint" />
            <mxPoint x="-41" y="292.5" as="sourcePoint" />
          </mxGeometry>
        </mxCell>
        <mxCell id="jaxn0THEXveVpyBMT0pF-18" style="edgeStyle=orthogonalEdgeStyle;rounded=0;orthogonalLoop=1;jettySize=auto;html=1;exitX=1;exitY=0.5;exitDx=0;exitDy=0;entryX=0;entryY=0.5;entryDx=0;entryDy=0;strokeColor=#006600;" edge="1" parent="1" source="eNA9eat7r-kCLk699n3w-20" target="jaxn0THEXveVpyBMT0pF-13">
          <mxGeometry relative="1" as="geometry" />
        </mxCell>
        <mxCell id="eNA9eat7r-kCLk699n3w-20" value="&lt;p style=&quot;line-height: 100%;&quot;&gt;&lt;b&gt;&lt;font style=&quot;font-size: 9px;&quot;&gt;dev sanity approved&lt;/font&gt;&lt;/b&gt;&lt;/p&gt;" style="shape=parallelogram;perimeter=parallelogramPerimeter;whiteSpace=wrap;html=1;fixedSize=1;size=10;fillColor=#f8cecc;strokeColor=#b85450;strokeWidth=1;" parent="1" vertex="1">
          <mxGeometry x="-53" y="280" width="125" height="25" as="geometry" />
        </mxCell>
        <mxCell id="eNA9eat7r-kCLk699n3w-23" style="edgeStyle=orthogonalEdgeStyle;rounded=0;orthogonalLoop=1;jettySize=auto;html=1;exitX=0;exitY=0.5;exitDx=0;exitDy=0;entryX=1;entryY=0.5;entryDx=0;entryDy=0;strokeColor=#000099;" parent="1" source="eNA9eat7r-kCLk699n3w-25" target="eNA9eat7r-kCLk699n3w-27" edge="1">
          <mxGeometry relative="1" as="geometry" />
        </mxCell>
        <mxCell id="eNA9eat7r-kCLk699n3w-24" style="edgeStyle=orthogonalEdgeStyle;rounded=0;orthogonalLoop=1;jettySize=auto;html=1;exitX=0.5;exitY=1;exitDx=0;exitDy=0;entryX=0.5;entryY=0;entryDx=0;entryDy=0;strokeColor=#000099;" parent="1" source="eNA9eat7r-kCLk699n3w-25" target="eNA9eat7r-kCLk699n3w-29" edge="1">
          <mxGeometry relative="1" as="geometry" />
        </mxCell>
        <mxCell id="eNA9eat7r-kCLk699n3w-31" style="edgeStyle=orthogonalEdgeStyle;rounded=0;orthogonalLoop=1;jettySize=auto;html=1;exitX=1;exitY=0.5;exitDx=0;exitDy=0;endArrow=none;endFill=0;strokeColor=#D6B656;startArrow=classic;startFill=1;" parent="1" source="eNA9eat7r-kCLk699n3w-25" edge="1">
          <mxGeometry relative="1" as="geometry">
            <mxPoint x="180" y="319.9999999999999" as="targetPoint" />
          </mxGeometry>
        </mxCell>
        <mxCell id="eNA9eat7r-kCLk699n3w-25" value="&lt;b&gt;sprint-1 feature-2&lt;/b&gt;" style="rounded=1;whiteSpace=wrap;html=1;fillColor=#e1d5e7;strokeColor=#9673a6;strokeWidth=2;" parent="1" vertex="1">
          <mxGeometry x="-55" y="332" width="130" height="30" as="geometry" />
        </mxCell>
        <mxCell id="eNA9eat7r-kCLk699n3w-26" style="edgeStyle=orthogonalEdgeStyle;rounded=0;orthogonalLoop=1;jettySize=auto;html=1;exitX=0.5;exitY=0;exitDx=0;exitDy=0;entryX=0.5;entryY=0;entryDx=0;entryDy=0;strokeColor=#990000;" parent="1" source="eNA9eat7r-kCLk699n3w-27" target="eNA9eat7r-kCLk699n3w-25" edge="1">
          <mxGeometry relative="1" as="geometry">
            <Array as="points">
              <mxPoint x="-120" y="312" />
              <mxPoint x="10" y="312" />
            </Array>
          </mxGeometry>
        </mxCell>
        <mxCell id="eNA9eat7r-kCLk699n3w-33" style="edgeStyle=orthogonalEdgeStyle;rounded=0;orthogonalLoop=1;jettySize=auto;html=1;exitX=0;exitY=0.5;exitDx=0;exitDy=0;strokeColor=#006600;endArrow=none;endFill=0;" parent="1" source="eNA9eat7r-kCLk699n3w-27" edge="1">
          <mxGeometry relative="1" as="geometry">
            <mxPoint x="-189.99999999999977" y="289.9999999999999" as="targetPoint" />
          </mxGeometry>
        </mxCell>
        <mxCell id="eNA9eat7r-kCLk699n3w-27" value="&lt;p style=&quot;line-height: 100%; font-size: 9px;&quot;&gt;&lt;span style=&quot;&quot;&gt;&lt;b&gt;code&lt;br&gt;coverage&lt;br&gt;done&lt;/b&gt;&lt;br&gt;&lt;/span&gt;&lt;/p&gt;" style="rhombus;whiteSpace=wrap;html=1;fillColor=#dae8fc;strokeColor=#6c8ebf;strokeWidth=1;" parent="1" vertex="1">
          <mxGeometry x="-155.5" y="326.38" width="70" height="41.25" as="geometry" />
        </mxCell>
        <mxCell id="eNA9eat7r-kCLk699n3w-28" value="&lt;b&gt;&lt;font color=&quot;#990000&quot; style=&quot;font-size: 10px;&quot;&gt;NO&lt;/font&gt;&lt;/b&gt;" style="text;html=1;strokeColor=none;fillColor=none;align=center;verticalAlign=middle;whiteSpace=wrap;rounded=0;" parent="1" vertex="1">
          <mxGeometry x="-121" y="311.88" width="20" height="16.12" as="geometry" />
        </mxCell>
        <mxCell id="eNA9eat7r-kCLk699n3w-35" style="edgeStyle=orthogonalEdgeStyle;rounded=0;orthogonalLoop=1;jettySize=auto;html=1;exitX=0;exitY=0.5;exitDx=0;exitDy=0;entryX=0;entryY=0.5;entryDx=0;entryDy=0;startArrow=classic;startFill=1;endArrow=none;endFill=0;dashed=1;strokeColor=#CC6600;" parent="1" source="eNA9eat7r-kCLk699n3w-29" target="eNA9eat7r-kCLk699n3w-4" edge="1">
          <mxGeometry relative="1" as="geometry" />
        </mxCell>
        <mxCell id="jaxn0THEXveVpyBMT0pF-21" style="edgeStyle=orthogonalEdgeStyle;rounded=0;orthogonalLoop=1;jettySize=auto;html=1;exitX=1;exitY=0.5;exitDx=0;exitDy=0;entryX=0;entryY=0.5;entryDx=0;entryDy=0;strokeColor=#006600;" edge="1" parent="1" source="eNA9eat7r-kCLk699n3w-29" target="jaxn0THEXveVpyBMT0pF-16">
          <mxGeometry relative="1" as="geometry" />
        </mxCell>
        <mxCell id="eNA9eat7r-kCLk699n3w-29" value="&lt;p style=&quot;line-height: 100%;&quot;&gt;&lt;b&gt;&lt;font style=&quot;font-size: 9px;&quot;&gt;dev sanity approved&lt;/font&gt;&lt;/b&gt;&lt;/p&gt;" style="shape=parallelogram;perimeter=parallelogramPerimeter;whiteSpace=wrap;html=1;fixedSize=1;size=10;fillColor=#f8cecc;strokeColor=#b85450;strokeWidth=1;" parent="1" vertex="1">
          <mxGeometry x="-53" y="382" width="125" height="25" as="geometry" />
        </mxCell>
        <mxCell id="eNA9eat7r-kCLk699n3w-36" value="&lt;b&gt;&lt;font style=&quot;font-size: 10px;&quot;&gt;APPROVAL&lt;/font&gt;&lt;/b&gt;" style="text;html=1;strokeColor=none;fillColor=none;align=center;verticalAlign=middle;whiteSpace=wrap;rounded=0;fontColor=#CC6600;" parent="1" vertex="1">
          <mxGeometry x="-373" y="378" width="70" height="16.12" as="geometry" />
        </mxCell>
        <mxCell id="eNA9eat7r-kCLk699n3w-40" style="edgeStyle=orthogonalEdgeStyle;rounded=0;orthogonalLoop=1;jettySize=auto;html=1;exitX=0;exitY=0.5;exitDx=0;exitDy=0;entryX=1;entryY=0.5;entryDx=0;entryDy=0;strokeColor=#000099;" parent="1" source="eNA9eat7r-kCLk699n3w-42" target="eNA9eat7r-kCLk699n3w-44" edge="1">
          <mxGeometry relative="1" as="geometry" />
        </mxCell>
        <mxCell id="eNA9eat7r-kCLk699n3w-41" style="edgeStyle=orthogonalEdgeStyle;rounded=0;orthogonalLoop=1;jettySize=auto;html=1;exitX=0.5;exitY=1;exitDx=0;exitDy=0;entryX=0.5;entryY=0;entryDx=0;entryDy=0;strokeColor=#000099;" parent="1" source="eNA9eat7r-kCLk699n3w-42" target="eNA9eat7r-kCLk699n3w-46" edge="1">
          <mxGeometry relative="1" as="geometry" />
        </mxCell>
        <mxCell id="jaxn0THEXveVpyBMT0pF-8" style="edgeStyle=orthogonalEdgeStyle;rounded=0;orthogonalLoop=1;jettySize=auto;html=1;exitX=1;exitY=0.5;exitDx=0;exitDy=0;endArrow=none;endFill=0;strokeColor=#D6B656;" edge="1" parent="1" source="eNA9eat7r-kCLk699n3w-42">
          <mxGeometry relative="1" as="geometry">
            <mxPoint x="180" y="340" as="targetPoint" />
          </mxGeometry>
        </mxCell>
        <mxCell id="eNA9eat7r-kCLk699n3w-42" value="&lt;b&gt;sprint-1 feature-(n)&lt;/b&gt;" style="rounded=1;whiteSpace=wrap;html=1;fillColor=#e1d5e7;strokeColor=#9673a6;strokeWidth=2;" parent="1" vertex="1">
          <mxGeometry x="-55" y="434" width="130" height="30" as="geometry" />
        </mxCell>
        <mxCell id="eNA9eat7r-kCLk699n3w-43" style="edgeStyle=orthogonalEdgeStyle;rounded=0;orthogonalLoop=1;jettySize=auto;html=1;exitX=0.5;exitY=0;exitDx=0;exitDy=0;entryX=0.5;entryY=0;entryDx=0;entryDy=0;strokeColor=#990000;" parent="1" source="eNA9eat7r-kCLk699n3w-44" target="eNA9eat7r-kCLk699n3w-42" edge="1">
          <mxGeometry relative="1" as="geometry">
            <Array as="points">
              <mxPoint x="-120" y="414" />
              <mxPoint x="10" y="414" />
            </Array>
          </mxGeometry>
        </mxCell>
        <mxCell id="eNA9eat7r-kCLk699n3w-47" style="edgeStyle=orthogonalEdgeStyle;rounded=0;orthogonalLoop=1;jettySize=auto;html=1;exitX=0;exitY=0.5;exitDx=0;exitDy=0;strokeColor=#006600;endArrow=none;endFill=0;" parent="1" edge="1">
          <mxGeometry relative="1" as="geometry">
            <mxPoint x="-190" y="340" as="targetPoint" />
            <mxPoint x="-155.5" y="449.005" as="sourcePoint" />
          </mxGeometry>
        </mxCell>
        <mxCell id="eNA9eat7r-kCLk699n3w-44" value="&lt;p style=&quot;line-height: 100%; font-size: 9px;&quot;&gt;&lt;span style=&quot;&quot;&gt;&lt;b&gt;code&lt;br&gt;coverage&lt;br&gt;done&lt;/b&gt;&lt;br&gt;&lt;/span&gt;&lt;/p&gt;" style="rhombus;whiteSpace=wrap;html=1;fillColor=#dae8fc;strokeColor=#6c8ebf;strokeWidth=1;" parent="1" vertex="1">
          <mxGeometry x="-155.5" y="428.38" width="70" height="41.25" as="geometry" />
        </mxCell>
        <mxCell id="eNA9eat7r-kCLk699n3w-45" value="&lt;b&gt;&lt;font color=&quot;#990000&quot; style=&quot;font-size: 10px;&quot;&gt;NO&lt;/font&gt;&lt;/b&gt;" style="text;html=1;strokeColor=none;fillColor=none;align=center;verticalAlign=middle;whiteSpace=wrap;rounded=0;" parent="1" vertex="1">
          <mxGeometry x="-121" y="413.88" width="20" height="16.12" as="geometry" />
        </mxCell>
        <mxCell id="eNA9eat7r-kCLk699n3w-48" style="edgeStyle=orthogonalEdgeStyle;rounded=0;orthogonalLoop=1;jettySize=auto;html=1;exitX=0;exitY=0.5;exitDx=0;exitDy=0;strokeColor=#CC6600;startArrow=classic;startFill=1;endArrow=none;endFill=0;dashed=1;" parent="1" source="eNA9eat7r-kCLk699n3w-46" edge="1">
          <mxGeometry relative="1" as="geometry">
            <mxPoint x="-163" y="390" as="targetPoint" />
            <mxPoint x="-41" y="496.5" as="sourcePoint" />
          </mxGeometry>
        </mxCell>
        <mxCell id="jaxn0THEXveVpyBMT0pF-20" style="edgeStyle=orthogonalEdgeStyle;rounded=0;orthogonalLoop=1;jettySize=auto;html=1;exitX=1;exitY=0.5;exitDx=0;exitDy=0;entryX=0;entryY=0.5;entryDx=0;entryDy=0;strokeColor=#006600;" edge="1" parent="1" source="eNA9eat7r-kCLk699n3w-46" target="jaxn0THEXveVpyBMT0pF-14">
          <mxGeometry relative="1" as="geometry" />
        </mxCell>
        <mxCell id="eNA9eat7r-kCLk699n3w-46" value="&lt;p style=&quot;line-height: 100%;&quot;&gt;&lt;b&gt;&lt;font style=&quot;font-size: 9px;&quot;&gt;dev sanity approved&lt;/font&gt;&lt;/b&gt;&lt;/p&gt;" style="shape=parallelogram;perimeter=parallelogramPerimeter;whiteSpace=wrap;html=1;fixedSize=1;size=10;fillColor=#f8cecc;strokeColor=#b85450;strokeWidth=1;" parent="1" vertex="1">
          <mxGeometry x="-53" y="484" width="125" height="25" as="geometry" />
        </mxCell>
        <mxCell id="eNA9eat7r-kCLk699n3w-50" value="&lt;b&gt;&lt;font color=&quot;#006600&quot; style=&quot;font-size: 10px;&quot;&gt;YES&lt;/font&gt;&lt;/b&gt;" style="text;html=1;strokeColor=none;fillColor=none;align=center;verticalAlign=middle;whiteSpace=wrap;rounded=0;" parent="1" vertex="1">
          <mxGeometry x="-193" y="243.88" width="30" height="16.12" as="geometry" />
        </mxCell>
        <mxCell id="eNA9eat7r-kCLk699n3w-51" value="&lt;b&gt;&lt;font color=&quot;#006600&quot; style=&quot;font-size: 10px;&quot;&gt;YES&lt;/font&gt;&lt;/b&gt;" style="text;html=1;strokeColor=none;fillColor=none;align=center;verticalAlign=middle;whiteSpace=wrap;rounded=0;" parent="1" vertex="1">
          <mxGeometry x="-193" y="344.88" width="30" height="16.12" as="geometry" />
        </mxCell>
        <mxCell id="eNA9eat7r-kCLk699n3w-52" value="&lt;b&gt;&lt;font color=&quot;#006600&quot; style=&quot;font-size: 10px;&quot;&gt;YES&lt;/font&gt;&lt;/b&gt;" style="text;html=1;strokeColor=none;fillColor=none;align=center;verticalAlign=middle;whiteSpace=wrap;rounded=0;" parent="1" vertex="1">
          <mxGeometry x="-193" y="446.88" width="30" height="16.12" as="geometry" />
        </mxCell>
        <mxCell id="jaxn0THEXveVpyBMT0pF-10" value="created on sprint start" style="text;html=1;strokeColor=none;fillColor=#333333;align=center;verticalAlign=middle;whiteSpace=wrap;rounded=0;fontColor=#FFF2CC;" vertex="1" parent="1">
          <mxGeometry x="-96" y="178" width="140" height="20.37" as="geometry" />
        </mxCell>
        <mxCell id="jaxn0THEXveVpyBMT0pF-23" style="edgeStyle=orthogonalEdgeStyle;rounded=0;orthogonalLoop=1;jettySize=auto;html=1;exitX=1;exitY=0.5;exitDx=0;exitDy=0;endArrow=none;endFill=0;strokeColor=#CC00CC;" edge="1" parent="1" source="jaxn0THEXveVpyBMT0pF-13">
          <mxGeometry relative="1" as="geometry">
            <mxPoint x="170" y="400" as="targetPoint" />
          </mxGeometry>
        </mxCell>
        <mxCell id="jaxn0THEXveVpyBMT0pF-13" value="&lt;b&gt;PR&lt;/b&gt;" style="shape=parallelogram;perimeter=parallelogramPerimeter;whiteSpace=wrap;html=1;fixedSize=1;size=10;fillColor=#d5e8d4;strokeColor=#82b366;strokeWidth=2;" vertex="1" parent="1">
          <mxGeometry x="100" y="280" width="50" height="25" as="geometry" />
        </mxCell>
        <mxCell id="jaxn0THEXveVpyBMT0pF-24" style="edgeStyle=orthogonalEdgeStyle;rounded=0;orthogonalLoop=1;jettySize=auto;html=1;exitX=1;exitY=0.5;exitDx=0;exitDy=0;endArrow=none;endFill=0;strokeColor=#CC00CC;" edge="1" parent="1">
          <mxGeometry relative="1" as="geometry">
            <mxPoint x="169" y="390" as="targetPoint" />
            <mxPoint x="149" y="496.5" as="sourcePoint" />
            <Array as="points">
              <mxPoint x="170" y="497" />
              <mxPoint x="170" y="390" />
            </Array>
          </mxGeometry>
        </mxCell>
        <mxCell id="jaxn0THEXveVpyBMT0pF-14" value="&lt;b&gt;PR&lt;/b&gt;" style="shape=parallelogram;perimeter=parallelogramPerimeter;whiteSpace=wrap;html=1;fixedSize=1;size=10;fillColor=#d5e8d4;strokeColor=#82b366;strokeWidth=2;" vertex="1" parent="1">
          <mxGeometry x="105" y="484" width="50" height="25" as="geometry" />
        </mxCell>
        <mxCell id="jaxn0THEXveVpyBMT0pF-22" style="edgeStyle=orthogonalEdgeStyle;rounded=0;orthogonalLoop=1;jettySize=auto;html=1;exitX=1;exitY=0.5;exitDx=0;exitDy=0;entryX=0.25;entryY=1;entryDx=0;entryDy=0;strokeColor=#CC00CC;" edge="1" parent="1" source="jaxn0THEXveVpyBMT0pF-16" target="qjdT9Vj7Uxa5JiSwjhFM-1">
          <mxGeometry relative="1" as="geometry" />
        </mxCell>
        <mxCell id="jaxn0THEXveVpyBMT0pF-16" value="&lt;b&gt;PR&lt;/b&gt;" style="shape=parallelogram;perimeter=parallelogramPerimeter;whiteSpace=wrap;html=1;fixedSize=1;size=10;fillColor=#d5e8d4;strokeColor=#82b366;strokeWidth=2;" vertex="1" parent="1">
          <mxGeometry x="105" y="382" width="50" height="25" as="geometry" />
        </mxCell>
      </root>
    </mxGraphModel>
  </diagram>
</mxfile>
